# AST/ASF file generated using VICON BodyLanguage
# -----------------------------------------------
:version 1.10
:name VICON
:units
  mass 1.0
  length 0.45
  angle deg
:documentation
   .ast/.asf automatically generated from VICON data using
   VICON BodyBuilder and BodyLanguage model FoxedUp or BRILLIANT.MOD
:root
   order TX TY TZ RX RY RZ
   axis XYZ
   position 0 0 0  
   orientation 0 0 0 
:bonedata
  begin
     id 1 
     name lhipjoint
     direction 0.528046 -0.759594 0.379717 
     length 2.39752 
     axis 0 0 0  XYZ
  end
  begin
     id 2 
     name lfemur
     direction 0.34202 -0.939693 0  
     length 7.31175  
     axis 0 0 20  XYZ
    dof rx ry rz
    limits (-160.0 20.0)
           (-70.0 70.0)
           (-60.0 70.0)
  end
  begin
     id 3 
     name ltibia
     direction 0.34202 -0.939693 0   
     length 7.52482   
     axis 0 0 20   XYZ
    dof rx
    limits (-10.0 170.0)
  end
  begin
     id 4 
     name lfoot
     direction 0.0675379 -0.185559 0.980309   
     length 2.00961   
     axis -90 7.62852e-016 20   XYZ
    dof rx rz
    limits (-45.0 90.0)
           (-70.0 20.0)
  end
  begin
     id 5 
     name ltoes
     direction 1.5352e-011 -4.22286e-011 1   
     length 1.01383   
     axis -90 7.62852e-016 20   XYZ
    dof rx
    limits (-90.0 20.0)
  end
  begin
     id 6 
     name rhipjoint
     direction -0.510274 -0.769251 0.384544   
     length 2.36742  
     axis 0 0 0  XYZ 
  end
  begin
     id 7 
     name rfemur
     direction -0.34202 -0.939693 0   
     length 7.45325   
     axis 0 0 -20   XYZ
    dof rx ry rz
    limits (-160.0 20.0)
           (-70.0 70.0)
           (-70.0 60.0)
  end
  begin
     id 8 
     name rtibia
     direction -0.34202 -0.939693 0   
     length 7.49587   
     axis 0 0 -20   XYZ
    dof rx
    limits (-10.0 170.0)
 end
 begin
     id 9 
     name rfoot
     direction -0.106475 -0.292536 0.950308   
     length 2.20898  
     axis -90 -7.62852e-016 -20   XYZ
    dof rx rz
    limits (-45.0 90.0)
           (-20.0 70.0)
  end
  begin
     id 10 
     name rtoes
     direction -1.53597e-011 -4.22023e-011 1   
     length 1.10065   
     axis -90 -7.62852e-016 -20   XYZ
    dof rx
    limits (-90.0 20.0)
  end
  begin
     id 11 
     name lowerback
     direction 0.0260024 0.998026 -0.0571652   
     length 2.11214   
     axis 0 0 0   XYZ
    dof rx ry rz
    limits (-20.0 45.0)
           (-30.0 30.0)
           (-30.0 30.0)
  end
  begin
     id 12 
     name upperback
     direction 0.0216202 0.999542 -0.0211766   
     length 2.11689   
     axis 0 0 0   XYZ
    dof rx ry rz
    limits (-20.0 45.0)
           (-30.0 30.0)
           (-30.0 30.0)
  end
  begin
     id 13 
     name thorax
     direction 0.00883312 0.999944 0.00589057   
     length 2.11821   
     axis 0 0 0   XYZ
    dof rx ry rz
    limits (-20.0 45.0)
           (-30.0 30.0)
           (-30.0 30.0)
  end
  begin
     id 14 
     name lowerneck
     direction -0.059386 0.994433 0.0870401   
     length 1.81176   
     axis 0 0 0   XYZ
    dof rx ry rz
    limits (-20.0 45.0)
           (-30.0 30.0)
           (-30.0 30.0)
  end
  begin
     id 15 
     name upperneck
     direction 0.0506457 0.97328 -0.223967   
     length 1.82382   
     axis 0 0 0   XYZ
    dof rx ry rz
    limits (-20.0 45.0)
           (-30.0 30.0)
           (-30.0 30.0)
  end
  begin
     id 16
     name head
     direction 0.0205902 0.996147 -0.0852487  
     length 1.84805  
     axis 0 0 0   XYZ
    dof rx ry rz
    limits (-20.0 45.0)
           (-30.0 30.0)
           (-30.0 30.0)
  end
  begin
     id 17 
     name lclavicle
     direction 0.949493 0.303881 -0.0782325  
     length 3.60584  
     axis 0 0 0   XYZ
    dof ry rz
    limits (-20.0 10.0)
           (0.0 20.0)
  end
  begin
     id 18 
     name lhumerus
     direction 1 -4.48965e-011 1.48782e-027   
     length 4.95681   
     axis 180 -30 -90   XYZ
    dof rx ry rz
    limits (-60.0 90.0)
           (-90.0 90.0)
           (-90.0 90.0)
  end
  begin
     id 19
     name lradius
     direction 1 -4.48952e-011 2.06528e-027   
     length 3.40915   
     axis 180 -30 -90   XYZ
    dof rx
    limits (-10.0 170.0)
  end
  begin
     id 20
     name lwrist
     direction 1 -4.48964e-011 1.28021e-027   
     length 1.70457   
     axis -1.61767e-015 90 90   XYZ
    dof ry
    limits (-180.0 0.0)
 end
  begin
     id 21 
     name lhand
     direction 1 -4.49094e-011 2.54887e-027   
     length 0.616403   
     axis -1.63363e-015 90 90   XYZ
    dof rx rz
    limits (-90.0 90.0)
           (-45.0 45.0)
  end
  begin
     id 22 
     name lfingers
     direction 1 -4.49002e-011 5.11407e-027   
     length 0.49696   
     axis -3.26723e-015 90 90   XYZ
    dof rx
    limits (0.0 90.0)
  end
  begin
     id 23
     name lthumb
     direction 0.707107 -6.34998e-011 0.707107   
     length 0.713539   
     axis -90 45 -2.25915e-014   XYZ
    dof rx rz
    limits (-45.0 45.0)
           (-45.0 45.0)
  end
  begin
     id 24 
     name rclavicle
     direction -0.937751 0.334612 -0.0930482   
     length 3.46287  
     axis 0 0 0   XYZ 
    dof ry rz
    limits (-10.0 20.0)
           (-20.0 0.0)
  end
  begin
     id 25 
     name rhumerus
     direction -1 -4.48962e-011 3.59972e-027  
     length 5.352   
     axis 180 30 90   XYZ
    dof rx ry rz
    limits (-90.0 60.0)
           (-90.0 90.0)
           (-90.0 90.0)
  end
  begin
     id 26 
     name rradius
     direction -1 -4.48987e-011 -3.76925e-027   
     length 3.43721   
     axis 180 30 90   XYZ
    dof rx
    limits (-10.0 170.0)
  end
  begin
     id 27 
     name rwrist
     direction -1 -4.48943e-011 1.28112e-027   
     length 1.7186   
     axis -1.61767e-015 -90 -90   XYZ
    dof ry
    limits (-180.0 0.0)
  end
  begin
     id 28
     name rhand
     direction -1 -4.49027e-011 2.55483e-027   
     length 0.72009   
     axis -1.63363e-015 -90 -90   XYZ
    dof rx rz
    limits (-90.0 90.0)
           (-45.0 45.0)
  end
  begin
     id 29
     name rfingers
     direction -1 -4.48827e-011 5.14506e-027   
     length 0.580555   
     axis -3.26723e-015 -90 -90   XYZ
    dof rx
    limits (0.0 90.0)
  end
  begin
     id 30
     name rthumb
     direction -0.707107 -6.34936e-011 0.707107   
     length 0.833564   
     axis -90 -45 2.25915e-014   XYZ
    dof rx rz
    limits (-45.0 45.0)
           (-45.0 45.0)
  end
:hierarchy
  begin
    root lhipjoint rhipjoint lowerback
    lhipjoint lfemur
    lfemur ltibia
    ltibia lfoot
    lfoot ltoes
    rhipjoint rfemur
    rfemur rtibia
    rtibia rfoot
    rfoot rtoes
    lowerback upperback
    upperback thorax
    thorax lowerneck lclavicle rclavicle
    lowerneck upperneck
    upperneck head
    lclavicle lhumerus
    lhumerus lradius
    lradius lwrist
    lwrist lhand lthumb
    lhand lfingers
    rclavicle rhumerus
    rhumerus rradius
    rradius rwrist
    rwrist rhand rthumb
    rhand rfingers
  end

#!OML:ASF H:\Terrain\Patient Classification 1\Terrain2\Thursday\justin.ASF
:FULLY-SPECIFIED
:DEGREES
225
root 11.0413 18.2336 -1.01263 392.202 -78.7048 -399.333
lowerback 9.92097 0.605085 6.83662
upperback 3.49605 1.34619 5.79086
thorax -1.88273 0.559313 2.03929
lowerneck -9.98119 -4.2026 -11.715
upperneck 36.9932 -7.53849 6.84634
head 15.3531 -4.46674 3.65106
rclavicle -1.27222e-014 -4.6118e-014
rhumerus -33.5669 -19.5941 -70.8622
rradius 26.1114
rwrist -9.35346
rhand -23.439 11.0351
rfingers 7.12502
rthumb 3.01918 -18.9233
lclavicle -1.27222e-014 -4.6118e-014
lhumerus -40.8069 8.75564 86.3762
lradius 33.9131
lwrist 3.21972
lhand -16.1728 19.1701
lfingers 7.12502
lthumb 10.0334 48.911
rfemur 4.99293 -9.85566 32.2691
rtibia 13.4904
rfoot -1.60072 4.18434
rtoes 12.62
lfemur -33.4996 5.19623 -2.47722
ltibia 115.637
lfoot -2.69425 -16.1853
ltoes 13.8223
226
root 10.9808 18.2572 -1.01409 394.4 -78.6815 -401.624
lowerback 10.367 0.735082 7.27117
upperback 3.51511 1.59961 5.91626
thorax -2.09346 0.675368 1.89747
lowerneck -10.0493 -4.28097 -11.9191
upperneck 36.9652 -7.66041 7.04203
head 15.3945 -4.51681 3.75048
rclavicle 4.47266e-015 -7.95139e-015
rhumerus -32.9976 -17.9854 -71.653
rradius 27.2861
rwrist -10.2646
rhand -24.3027 11.5184
rfingers 7.12502
rthumb 2.185 -18.4502
lclavicle 4.47266e-015 -7.95139e-015
lhumerus -40.8083 8.26913 86.7031
lradius 35.1205
lwrist 3.83434
lhand -16.9708 19.3867
lfingers 7.12502
lthumb 9.26354 49.1632
rfemur 6.24601 -9.88617 32.6476
rtibia 11.5336
rfoot -0.500548 4.28649
rtoes 11.6192
lfemur -35.9242 6.74853 -1.64471
ltibia 117.51
lfoot -3.45675 -18.0615
ltoes 0.294667
227
root 10.9217 18.2808 -1.01236 396.916 -78.5061 -404.138
lowerback 10.6822 0.827824 7.90535
upperback 3.50414 1.81465 6.07868
thorax -2.25512 0.771311 1.68873
lowerneck -10.0264 -4.38067 -12.2414
upperneck 36.8367 -7.79593 7.27338
head 15.3763 -4.58325 3.8831
rclavicle 2.50469e-014 -5.88403e-014
rhumerus -32.4524 -16.5342 -72.2089
rradius 28.4005
rwrist -10.9531
rhand -25.1368 11.5293
rfingers 7.12502
rthumb 1.37947 -18.446
lclavicle 2.50469e-014 -5.88403e-014
lhumerus -40.796 7.83247 87.053
lradius 36.307
lwrist 4.73857
lhand -18.4102 19.9349
lfingers 7.12502
lthumb 7.8744 49.7682
rfemur 7.62466 -9.88061 33.1847
rtibia 8.92388
rfoot 0.799402 4.36521
rtoes 8.6707
lfemur -38.5361 8.43526 -0.895236
ltibia 119.343
lfoot -2.83286 -20.7383
ltoes 22.9995
228
root 10.8636 18.2959 -1.0096 401.884 -78.006 -409.176
lowerback 10.9125 0.973259 9.31858
upperback 3.5694 2.15562 6.21111
thorax -2.24469 0.931074 1.00754
lowerneck -9.96629 -4.54644 -12.1084
upperneck 36.5738 -8.05063 7.29817
head 15.2624 -4.65674 3.82193
rclavicle -2.49475e-014 -3.18055e-014
rhumerus -31.9077 -15.4165 -72.8652
rradius 29.5502
rwrist -11.7901
rhand -24.5568 11.4026
rfingers 7.12502
rthumb 1.93958 -18.5683
lclavicle -2.49475e-014 -3.18055e-014
lhumerus -40.5837 6.78694 87.2327
lradius 37.4076
lwrist 5.88358
lhand -18.9998 20.0008
lfingers 7.12502
lthumb 7.30533 49.8547
rfemur 9.26356 -9.77878 34.4045
rtibia 5.77163
rfoot 2.55798 4.36852
rtoes 7.1016
lfemur -41.1212 10.4465 0.600977
ltibia 121.062
lfoot -7.17871 -20.4874
ltoes 8.21426
229
root 10.7984 18.318 -1.00042 405.352 -78.058 -412.774
lowerback 11.2456 1.21389 10.108
upperback 3.6941 2.57634 6.17068
thorax -2.23088 1.13681 0.477606
lowerneck -10.0143 -4.69818 -11.7636
upperneck 36.3822 -8.26254 7.14166
head 15.1803 -4.70498 3.6523
rclavicle -8.94531e-015 -1.43125e-014
rhumerus -31.3471 -14.3696 -73.5287
rradius 30.6528
rwrist -12.7294
rhand -24.2629 12.012
rfingers 7.12502
rthumb 2.22345 -17.9561
lclavicle -8.94531e-015 -1.43125e-014
lhumerus -40.296 6.04751 87.2625
lradius 38.328
lwrist 6.6725
lhand -19.3978 19.553
lfingers 7.12502
lthumb 6.92117 49.4198
rfemur 12.4829 -9.4152 34.9106
rtibia 2.38542e-015
rfoot 5.63213 4.35331
rtoes 5.92322
lfemur -43.3696 12.4631 1.25029
ltibia 122.545
lfoot -10.3103 -19.5364
ltoes 0.301413
230
root 10.727 18.3421 -0.984816 406.721 -78.5451 -414.207
lowerback 11.5372 1.43782 10.0881
upperback 3.79807 2.89626 6.13234
thorax -2.25955 1.29437 0.402753
lowerneck -10.0791 -4.80887 -11.9894
upperneck 36.2909 -8.42344 7.34831
head 15.1997 -4.77074 3.7508
rclavicle 1.0138e-014 4.13472e-014
rhumerus -30.8222 -13.0022 -74.0324
rradius 31.7535
rwrist -13.6091
rhand -24.4761 12.6398
rfingers 7.12502
rthumb 2.01755 -17.3304
lclavicle 1.0138e-014 4.13472e-014
lhumerus -40.1982 5.92613 87.4695
lradius 39.3161
lwrist 7.16741
lhand -20.2753 19.3543
lfingers 7.12502
lthumb 6.07407 49.2472
rfemur 12.8575 -9.03199 34.6711
rtibia 1.74931e-014
rfoot 5.78896 4.47535
rtoes 4.16038
lfemur -45.5797 14.1451 0.799653
ltibia 123.826
lfoot -12.475 -18.1706
ltoes -3.47098
231
root 10.6564 18.3589 -0.979788 408.496 -78.7834 -416.01
lowerback 11.7814 1.64627 10.1784
upperback 3.86272 3.20518 6.13958
thorax -2.29947 1.4444 0.316647
lowerneck -10.0935 -4.90038 -12.1852
upperneck 36.1693 -8.60121 7.64807
head 15.1989 -4.82949 3.88171
rclavicle 3.30976e-014 4.45278e-014
rhumerus -30.3707 -11.9561 -74.4261
rradius 32.8845
rwrist -14.0366
rhand -24.1998 12.3609
rfingers 7.12502
rthumb 2.28436 -17.6066
lclavicle 3.30976e-014 4.45278e-014
lhumerus -40.1834 5.84561 87.5476
lradius 40.3411
lwrist 7.47172
lhand -20.841 19.1798
lfingers 7.12502
lthumb 5.52785 49.0877
rfemur 13.1232 -8.76673 34.7024
rtibia 2.3059e-014
rfoot 5.99019 4.5431
rtoes 2.84275
lfemur -47.9445 15.88 0.555624
ltibia 124.944
lfoot -12.2474 -21.9353
ltoes 2.12183
232
root 10.5866 18.3822 -0.977333 409.492 -79.287 -416.962
lowerback 11.9931 1.89839 10.014
upperback 3.90828 3.54675 5.97642
thorax -2.34594 1.6158 0.184732
lowerneck -10.0636 -4.96312 -12.1683
upperneck 36.0278 -8.76226 7.86929
head 15.1577 -4.86307 3.94427
rclavicle -4.41302e-014 -9.54166e-015
rhumerus -29.976 -11.2201 -74.7431
rradius 34.0669
rwrist -14.0628
rhand -24.1577 11.9961
rfingers 7.12502
rthumb 2.32502 -17.9709
lclavicle -4.41302e-014 -9.54166e-015
lhumerus -40.0216 5.68153 87.4386
lradius 41.1376
lwrist 7.6805
lhand -20.7641 18.8824
lfingers 7.12502
lthumb 5.60213 48.7884
rfemur 13.3394 -8.43631 34.3711
rtibia 2.54444e-014
rfoot 6.1531 4.50628
rtoes 2.75398
lfemur -50.2595 17.4007 -0.404134
ltibia 125.784
lfoot -12.179 -23.9403
ltoes 4.05539
233
root 10.5189 18.3981 -0.963249 411.148 -79.6248 -418.607
lowerback 12.2518 2.0369 10.1703
upperback 3.93378 3.77842 5.86291
thorax -2.42564 1.72794 -0.0584478
lowerneck -10.0098 -4.99411 -12.1891
upperneck 35.8931 -8.79847 7.90192
head 15.0882 -4.87305 3.95354
rclavicle 4.14466e-014 3.18055e-014
rhumerus -29.6417 -10.1731 -75.0794
rradius 35.3809
rwrist -14.2928
rhand -24.6335 12.2261
rfingers 7.12502
rthumb 1.86552 -17.7455
lclavicle 4.14466e-014 3.18055e-014
lhumerus -39.9804 5.49551 87.3728
lradius 42.0006
lwrist 8.13367
lhand -20.6105 18.8563
lfingers 7.12502
lthumb 5.75041 48.7583
rfemur 13.5743 -8.12859 34.2219
rtibia 2.06736e-014
rfoot 6.32369 4.47566
rtoes 3.06159
lfemur -52.5777 18.7297 -1.42352
ltibia 126.486
lfoot -13.3855 -23.818
ltoes 0.315735
